<svg id="Capa_1" enable-background="new 0 0 609.634 609.634" height="512" viewBox="0 0 609.634 609.634" width="512" xmlns="http://www.w3.org/2000/svg"><g><g id="Page-1_63_"><g id="_x30_64---Business-Automation"><path id="Shape_192_" d="m304.817 121.91c-101.006 0-182.887 81.881-182.887 182.887s81.881 182.887 182.887 182.887 182.887-81.881 182.887-182.887c-.118-100.957-81.93-182.77-182.887-182.887zm0 345.453c-89.783 0-162.566-72.783-162.566-162.566s72.783-162.566 162.566-162.566 162.566 72.783 162.566 162.566c-.106 89.738-72.827 162.459-162.566 162.566z"/><path id="Shape_191_" d="m545.974 352.154c11.388-1.791 20.21-10.912 21.621-22.353 1.856-16.605 1.856-33.364 0-49.969-1.397-11.444-10.221-20.571-21.611-22.353l-15.606-2.56c-5.736-26.437-16.174-51.628-30.816-74.374l9.144-12.772c6.915-9.349 6.732-22.166-.447-31.314-5.192-6.467-10.767-12.619-16.693-18.421-5.912-5.927-12.125-11.547-18.614-16.836-9.065-7.076-21.74-7.226-30.969-.366l-12.863 9.144c-22.763-14.63-47.973-25.044-74.425-30.745l-2.52-15.576c-1.853-11.437-11.012-20.29-22.505-21.753-16.62-1.697-33.369-1.697-49.989 0-11.381 1.552-20.406 10.37-22.221 21.713l-2.52 15.617c-26.437 5.723-51.63 16.154-74.374 30.796l-12.772-9.144c-9.335-6.96-22.182-6.777-31.314.447-6.411 5.243-12.436 10.709-18.289 16.541-6.005 5.883-11.654 12.119-16.917 18.675-7.102 9.104-7.281 21.821-.437 31.121l9.144 12.863c-14.612 22.756-25.018 47.95-30.725 74.384l-15.566 2.52c-11.395 1.778-20.223 10.905-21.621 22.353-1.856 16.618-1.856 33.391 0 50.009 1.41 11.438 10.227 20.558 21.611 22.353l15.576 2.52c5.736 26.436 16.174 51.628 30.816 74.374l-9.012 12.619c-7.084 9.347-6.946 22.303.335 31.497 5.253 6.411 10.709 12.436 16.693 18.421 5.355 5.355 11.176 10.648 18.614 16.836 9.074 7.114 21.79 7.264 31.03.366l12.863-9.144c22.743 14.647 47.935 25.082 74.374 30.806l2.52 15.576c1.772 11.398 10.902 20.23 22.353 21.621 16.598 1.856 33.351 1.856 49.948 0 11.447-1.39 20.577-10.217 22.353-21.611l2.52-15.586c26.439-5.724 51.631-16.159 74.374-30.806l12.772 9.144c9.367 6.977 22.259 6.769 31.396-.508 7.112-5.984 12.985-11.278 18.289-16.633 5.922-5.913 11.541-12.123 16.836-18.604 7.116-9.076 7.27-21.794.376-31.04l-9.195-12.863c14.643-22.746 25.08-47.937 30.816-74.374zm-34.139-8.23c-5.249 28.558-16.478 55.684-32.95 79.596-2.411 3.52-2.366 8.171.112 11.644l13.432 18.807c1.404 1.848 1.449 4.393.112 6.289-4.828 5.896-9.948 11.545-15.342 16.927-4.918 4.918-10.313 9.825-16.724 15.241-2.014 1.491-4.782 1.428-6.726-.152l-18.553-13.208c-3.477-2.488-8.14-2.532-11.664-.112-23.909 16.471-51.031 27.7-79.586 32.95-4.222.777-7.5 4.124-8.189 8.362l-3.637 22.546c-.309 2.404-2.183 4.308-4.582 4.653-15.109 1.687-30.359 1.687-45.468 0-2.389-.362-4.248-2.266-4.552-4.664l-3.637-22.607c-.689-4.238-3.967-7.585-8.189-8.362-28.555-5.251-55.677-16.479-79.586-32.95-3.524-2.421-8.187-2.376-11.664.112l-18.644 13.31c-1.82 1.498-4.41 1.618-6.36.295-6.686-5.568-12.081-10.475-17.008-15.393-5.497-5.507-10.516-11.044-15.19-16.744-1.487-2.015-1.425-4.781.152-6.726l13.208-18.553c2.478-3.473 2.523-8.124.112-11.644-16.472-23.913-27.701-51.038-32.95-79.596-.779-4.225-4.131-7.504-8.372-8.189l-22.536-3.637c-2.369-.391-4.236-2.23-4.664-4.592-1.68-15.099-1.68-30.338 0-45.437.364-2.392 2.265-4.256 4.664-4.572l22.566-3.658c4.241-.685 7.594-3.964 8.372-8.189 5.249-28.558 16.478-55.684 32.95-79.596 2.411-3.52 2.366-8.171-.112-11.644l-13.31-18.644c-1.491-1.864-1.586-4.485-.234-6.452 4.77-5.945 9.893-11.598 15.342-16.927 5.497-5.507 11.024-10.516 16.724-15.19 2.014-1.504 4.793-1.441 6.736.152l18.553 13.208c3.471 2.481 8.122 2.53 11.644.122 23.915-16.467 51.04-27.696 79.596-32.95 4.222-.777 7.5-4.124 8.189-8.362l3.637-22.546c.317-2.37 2.098-4.281 4.44-4.765 15.108-1.514 30.329-1.514 45.437 0 2.459.391 4.376 2.34 4.725 4.806l3.648 22.515c.689 4.238 3.967 7.585 8.189 8.362 28.557 5.254 55.681 16.483 79.596 32.95 3.522 2.408 8.173 2.359 11.644-.122l18.654-13.3c1.852-1.513 4.485-1.609 6.442-.234 5.951 4.866 11.648 10.034 17.069 15.484 5.365 5.247 10.41 10.812 15.108 16.663 1.433 2.014 1.346 4.737-.213 6.655l-13.208 18.553c-2.478 3.473-2.523 8.124-.112 11.644 16.472 23.913 27.701 51.038 32.95 79.596.779 4.225 4.131 7.504 8.372 8.189l22.536 3.637c2.405.318 4.308 2.192 4.664 4.592 1.68 15.086 1.68 30.311 0 45.397-.42 2.371-2.289 4.219-4.664 4.613l-22.536 3.637c-4.264.673-7.637 3.965-8.413 8.21z"/><path id="Path_152_" clip-rule="evenodd" d="m10.166 314.957c5.611 0 10.16-4.549 10.16-10.16-.015-133.641 93.017-249.266 223.564-277.857s263.39 37.566 319.234 158.98l-19.102-6.848c-5.283-1.894-11.101.854-12.995 6.137s.854 11.101 6.137 12.995l40.581 14.539c2.538.909 5.334.773 7.771-.38s4.317-3.227 5.224-5.767l14.539-40.581c1.872-5.278-.88-11.075-6.152-12.962s-11.077.847-12.98 6.114l-5.669 15.84c-60.76-129.109-202.974-198.77-342.227-167.634s-238.258 154.731-238.245 297.424c0 2.695 1.07 5.279 2.976 7.184 1.905 1.906 4.489 2.976 7.184 2.976z" fill-rule="evenodd"/><path id="Path_151_" clip-rule="evenodd" d="m599.468 294.636c-5.611 0-10.16 4.549-10.16 10.16.015 133.641-93.017 249.266-223.564 277.857s-263.39-37.566-319.234-158.98l19.102 6.848c5.283 1.894 11.101-.854 12.995-6.137s-.854-11.101-6.137-12.995l-40.581-14.499c-5.272-1.899-11.085.829-12.995 6.096l-14.54 40.631c-1.236 3.421-.549 7.241 1.801 10.017s6.005 4.084 9.582 3.43 6.533-3.171 7.749-6.599l5.669-15.84c60.764 129.117 202.988 198.777 342.248 167.63s238.256-154.76 238.225-297.46c0-2.695-1.07-5.279-2.976-7.184-1.905-1.904-4.489-2.975-7.184-2.975z" fill-rule="evenodd"/><path id="Shape_190_" d="m396.26 223.514h-20.32v-20.321c0-16.834-13.647-30.481-30.481-30.481h-81.283c-16.834 0-30.481 13.647-30.481 30.481v20.321h-20.321c-16.834 0-30.481 13.647-30.481 30.481v30.481c.022 7.227 3.894 13.895 10.16 17.496v73.947c0 16.834 13.647 30.481 30.481 30.481h162.566c16.834 0 30.481-13.647 30.481-30.481v-73.947c6.266-3.601 10.139-10.269 10.16-17.496v-30.481c.001-16.834-13.646-30.481-30.481-30.481zm-142.245-20.321c0-5.611 4.549-10.16 10.16-10.16h81.283c5.611 0 10.16 4.549 10.16 10.16v20.321h-101.603zm142.245 172.726c0 5.611-4.549 10.16-10.16 10.16h-162.566c-5.611 0-10.16-4.549-10.16-10.16v-71.123h60.962v20.321c0 11.223 9.098 20.321 20.321 20.321h20.321c11.223 0 20.321-9.098 20.321-20.321v-20.321h60.962v71.123zm-101.603-50.802v-30.481h20.321v30.481zm111.764-40.641h-73.947c-3.601-6.266-10.269-10.139-17.496-10.16h-20.321c-7.227.022-13.895 3.894-17.496 10.16h-73.947v-30.481c0-5.611 4.549-10.16 10.16-10.16h182.886c5.611 0 10.16 4.549 10.16 10.16v30.481z"/></g></g></g></svg>