<?xml version="1.0" encoding="UTF-8"?>
<svg xmlns="http://www.w3.org/2000/svg" id="Layer_3" data-name="Layer 3" viewBox="0 0 64 64" width="512" height="512"><path d="M62,23H58.5a27.865,27.865,0,0,0-2.383-5.218l2.045-2.046a1,1,0,0,0,0-1.414L49.678,5.837a1,1,0,0,0-1.414,0L46.219,7.882A27.76,27.76,0,0,0,39,4.891V2a1,1,0,0,0-1-1H26a1,1,0,0,0-1,1V4.891a27.76,27.76,0,0,0-7.219,2.991L15.736,5.837a1,1,0,0,0-1.414,0L5.837,14.322a1,1,0,0,0,0,1.414l2.045,2.046A27.865,27.865,0,0,0,5.5,23H2a1,1,0,0,0-1,1V42a1,1,0,0,0,1,1H6.272a27.921,27.921,0,0,0,1.61,3.218L5.837,48.264a1,1,0,0,0,0,1.414l8.485,8.485a1,1,0,0,0,1.414,0l2.045-2.045A27.746,27.746,0,0,0,25,59.109V62a1,1,0,0,0,1,1H38a1,1,0,0,0,1-1V59.109a27.746,27.746,0,0,0,7.219-2.991l2.045,2.045a1,1,0,0,0,1.414,0l8.485-8.485a1,1,0,0,0,0-1.414l-2.045-2.046A27.921,27.921,0,0,0,57.728,43H62a1,1,0,0,0,1-1V24A1,1,0,0,0,62,23ZM9.991,18.164a1,1,0,0,0-.138-1.24L7.958,15.029l7.071-7.071,1.895,1.895a1,1,0,0,0,1.24.139,25.79,25.79,0,0,1,8.058-3.34A1,1,0,0,0,27,5.677V3H37V5.677a1,1,0,0,0,.778.975,25.79,25.79,0,0,1,8.058,3.34,1,1,0,0,0,1.24-.139l1.895-1.895,7.071,7.071-1.9,1.895a1,1,0,0,0-.138,1.24A25.882,25.882,0,0,1,56.383,23h-5.42a20.983,20.983,0,0,0-37.926,0H7.617A25.882,25.882,0,0,1,9.991,18.164ZM17,27h1a1,1,0,0,0,.707-.293L22.414,23H29v2H24v2H41v2H26v2H44v2H26v2H41v2H26v2H37v2H22.236l-3.789-1.9A1,1,0,0,0,18,39H17ZM47,39H46a1,1,0,0,0-.447.1L41.764,41H39V39h3a1,1,0,0,0,1-1V35h2a1,1,0,0,0,1-1V30a1,1,0,0,0-1-1H43V26a1,1,0,0,0-1-1H34V23h7.586l3.707,3.707A1,1,0,0,0,46,27h1ZM17,42V41h.764l3.789,1.9A1,1,0,0,0,22,43H42a1,1,0,0,0,.447-.1L46.236,41H47v1a.991.991,0,0,0,.562.888,18.983,18.983,0,0,1-31.124,0A.991.991,0,0,0,17,42ZM48,23a1,1,0,0,0-1,1v1h-.586l-3.707-3.707A1,1,0,0,0,42,21H33a1,1,0,0,0-1,1v3H31V22a1,1,0,0,0-1-1H22a1,1,0,0,0-.707.293L17.586,25H17V24a1,1,0,0,0-1-1h-.733a19,19,0,0,1,33.466,0ZM3,25H15V41H3ZM54.147,47.076l1.9,1.895-7.071,7.071-1.895-1.9a1,1,0,0,0-1.24-.139,25.79,25.79,0,0,1-8.058,3.34,1,1,0,0,0-.778.975V61H27V58.323a1,1,0,0,0-.778-.975,25.79,25.79,0,0,1-8.058-3.34,1,1,0,0,0-1.24.139l-1.895,1.9L7.958,48.971l1.895-1.895a1,1,0,0,0,.138-1.24A25.892,25.892,0,0,1,8.471,43h5.651a20.981,20.981,0,0,0,35.756,0h5.651a25.892,25.892,0,0,1-1.52,2.836A1,1,0,0,0,54.147,47.076ZM61,41H49V25H61Z"/></svg>
